# xmcd
#
# Track frame offsets: 
#        150
#        18100
#        33975
#        52350
#        68550
#        84550
#        102325
#        118125
#        133475
#        153975
#        175275
#        190125
#
# Disc length: 2849 seconds
#
# Revision: 1
# Processed by: cddbd v1.5.2PL0 Copyright (c) Steve Scherf et al.
# Submitted via: ExactAudioCopy v1.0b4
#
DISCID=a50b1f0c
DTITLE=Javan - Somewhere In The Night
DYEAR=1991
DGENRE=Rock
TTITLE0=Moon
TTITLE1=Somewhere In The Night
TTITLE2=Call My Name
TTITLE3=Time Of Revival
TTITLE4=Back In My Life
TTITLE5=In My Herart
TTITLE6=Can't Get Enough
TTITLE7=Vicious Rumours
TTITLE8=Our Love
TTITLE9=Eyes
TTITLE10=Sophisticated Woman
TTITLE11=Dreams
EXTD=YEAR: 1991
EXTT0=
EXTT1=
EXTT2=
EXTT3=
EXTT4=
EXTT5=
EXTT6=
EXTT7=
EXTT8=
EXTT9=
EXTT10=
EXTT11=
PLAYORDER=
